<?xml version="1.0" encoding="utf-8"?>
<!-- Generator: Adobe Illustrator 21.1.0, SVG Export Plug-In . SVG Version: 6.00 Build 0)  -->
<svg version="1.1" id="Layer_1" xmlns="http://www.w3.org/2000/svg" xmlns:xlink="http://www.w3.org/1999/xlink" x="0px" y="0px"
	 viewBox="0 0 368.5 75.5" enable-background="new 0 0 368.5 75.5" xml:space="preserve">
<g>
	<path fill="#143A51" d="M126,69v6.5h-0.8V69h-2.4v-0.8h5.6V69H126z"/>
	<path fill="#143A51" d="M140.9,68.6c0.6,0.3,1.1,0.8,1.4,1.3c0.3,0.6,0.5,1.2,0.5,1.9c0,0.7-0.2,1.3-0.5,1.9
		c-0.3,0.6-0.8,1-1.4,1.3c-0.6,0.3-1.2,0.5-1.9,0.5c-0.7,0-1.4-0.2-1.9-0.5c-0.6-0.3-1.1-0.8-1.4-1.3c-0.3-0.6-0.5-1.2-0.5-1.9
		c0-0.7,0.2-1.3,0.5-1.9c0.3-0.6,0.8-1,1.4-1.3c0.6-0.3,1.2-0.5,1.9-0.5C139.7,68.1,140.3,68.3,140.9,68.6z M137.5,69.3
		c-0.5,0.3-0.8,0.6-1.1,1.1c-0.3,0.4-0.4,0.9-0.4,1.5c0,0.5,0.1,1,0.4,1.5s0.6,0.8,1.1,1.1s1,0.4,1.5,0.4s1-0.1,1.5-0.4
		c0.5-0.3,0.8-0.6,1.1-1.1s0.4-0.9,0.4-1.5s-0.1-1-0.4-1.5s-0.6-0.8-1.1-1c-0.5-0.3-1-0.4-1.5-0.4C138.4,68.9,137.9,69.1,137.5,69.3
		z"/>
	<path fill="#143A51" d="M154.2,73.2c-0.2,0-0.4,0-0.5,0h-2v2.3h-0.8v-7.4h2.8c0.9,0,1.6,0.2,2.1,0.6c0.5,0.4,0.8,1,0.8,1.8
		c0,0.6-0.1,1.1-0.4,1.5s-0.7,0.7-1.2,0.9l1.7,2.5h-1L154.2,73.2z M155.3,71.9c0.4-0.3,0.5-0.7,0.5-1.3c0-0.6-0.2-1-0.5-1.3
		c-0.4-0.3-0.9-0.4-1.5-0.4h-2v3.4h2C154.4,72.4,154.9,72.2,155.3,71.9z"/>
	<path fill="#143A51" d="M170.2,68.6c0.6,0.3,1.1,0.8,1.4,1.3c0.3,0.6,0.5,1.2,0.5,1.9c0,0.7-0.2,1.3-0.5,1.9
		c-0.3,0.6-0.8,1-1.4,1.3c-0.6,0.3-1.2,0.5-1.9,0.5c-0.7,0-1.4-0.2-1.9-0.5c-0.6-0.3-1.1-0.8-1.4-1.3c-0.3-0.6-0.5-1.2-0.5-1.9
		c0-0.7,0.2-1.3,0.5-1.9c0.3-0.6,0.8-1,1.4-1.3c0.6-0.3,1.2-0.5,1.9-0.5C169,68.1,169.7,68.3,170.2,68.6z M166.8,69.3
		c-0.5,0.3-0.8,0.6-1.1,1.1c-0.3,0.4-0.4,0.9-0.4,1.5c0,0.5,0.1,1,0.4,1.5s0.6,0.8,1.1,1.1s1,0.4,1.5,0.4s1-0.1,1.5-0.4
		c0.5-0.3,0.8-0.6,1.1-1.1s0.4-0.9,0.4-1.5s-0.1-1-0.4-1.5s-0.6-0.8-1.1-1c-0.5-0.3-1-0.4-1.5-0.4C167.8,68.9,167.3,69.1,166.8,69.3
		z"/>
	<path fill="#143A51" d="M185.6,75.5l-4.4-5.9v5.9h-0.8v-7.4h0.9l4.4,5.9v-5.9h0.8v7.4H185.6z"/>
	<path fill="#143A51" d="M197.5,69v6.5h-0.8V69h-2.4v-0.8h5.6V69H197.5z"/>
	<path fill="#143A51" d="M212.4,68.6c0.6,0.3,1.1,0.8,1.4,1.3c0.3,0.6,0.5,1.2,0.5,1.9c0,0.7-0.2,1.3-0.5,1.9
		c-0.3,0.6-0.8,1-1.4,1.3c-0.6,0.3-1.2,0.5-1.9,0.5c-0.7,0-1.4-0.2-1.9-0.5c-0.6-0.3-1.1-0.8-1.4-1.3c-0.3-0.6-0.5-1.2-0.5-1.9
		c0-0.7,0.2-1.3,0.5-1.9c0.3-0.6,0.8-1,1.4-1.3c0.6-0.3,1.2-0.5,1.9-0.5C211.1,68.1,211.8,68.3,212.4,68.6z M208.9,69.3
		c-0.5,0.3-0.8,0.6-1.1,1.1c-0.3,0.4-0.4,0.9-0.4,1.5c0,0.5,0.1,1,0.4,1.5s0.6,0.8,1.1,1.1s1,0.4,1.5,0.4s1-0.1,1.5-0.4
		c0.5-0.3,0.8-0.6,1.1-1.1s0.4-0.9,0.4-1.5s-0.1-1-0.4-1.5s-0.6-0.8-1.1-1c-0.5-0.3-1-0.4-1.5-0.4C209.9,68.9,209.4,69.1,208.9,69.3
		z"/>
</g>
<g>
	<path fill="#143A51" d="M37.4,0.9l0.1-0.1h-8.2l0.1,0.1c0,0,1,1.6,1,3.8v5.2c0,2.2-0.1,4.7-1.8,6.6c-1.3,1.5-3.2,2.7-5.8,3.6
		L14.6,23c-2.8,1-4.7,2.3-6,3.7c-0.6,0.7-1.1,1.6-1.5,2.7V4.7c0-2.2,1-3.8,1-3.8l0.1-0.1H0l0.1,0.1c0,0,1,1.6,1,3.8v34.4
		c0,2.2-1,3.7-1,3.7L0,42.9h8.2l-0.1-0.1c0,0-1-1.6-1-3.7v-7c0.2-1.5,0.5-3.5,1.8-5c1.3-1.5,3.2-2.7,5.8-3.6l8.2-2.9
		c2.6-1,4.7-2.2,6-3.7c0.7-0.8,1.2-1.7,1.5-2.7v24.8c0,2.2-1,3.8-1,3.9l-0.1,0.1h8.2l-0.1-0.1c0,0-1.1-1.6-1.1-3.7V4.7
		C36.3,2.5,37.4,0.9,37.4,0.9z"/>
	<path fill="#143A51" d="M66.2,0.8L66.2,0.8c-0.9,0-1.5,0.2-1.9,0.6c-0.3,0.3-0.5,0.6-0.7,1c-0.4,0.7-0.9,1.5-2.4,2.6l-0.1,0l1.4,3
		L52.3,30.5l0,0c0,0.1-0.4,0.8-3.2,7.2c-0.7,1.5-2.3,4.1-4.5,5.1l-0.3,0.1h7.1L51,42.8c0,0-1.7-0.8-1.7-3.2c0-0.7,0.2-1.5,0.5-2.3
		l2.9-6.6c0.7-1.6,2.6-2.5,4.9-2.5c1.1,0,2.3,0.2,3.6,0.5l12.4,3.2l5.1,11l0,0h7.1L66.2,0.8L66.2,0.8z M61.4,28.2
		c-1.5-0.4-2.7-0.5-3.7-0.5c-1.7,0-3.2,0.5-4.1,1.3l9.3-20.5l10.6,22.9L61.4,28.2z"/>
	<path fill="#143A51" d="M127.2,12.4c0-2.2-0.5-5.3-2.9-7.8c-2.5-2.5-6.4-3.8-11.7-3.8H95.2l0.1,0.1c0,0,1.1,1.6,1.1,3.8v34.4
		c0,2.2-1.1,3.7-1.1,3.7l-0.1,0.1h8.3l-0.1-0.1c0,0-1.1-1.6-1.1-3.7V24h6.3c2.1,0,2.9,1.2,3.8,2.3l10.5,16.6l0,0h7.1l-12.1-19.2
		C123.3,22.7,127.2,17.9,127.2,12.4z M111.8,23.5h-9.5V1.2h9.7c5.3,0,8.6,4.3,8.6,11.1c0,3.3-0.8,6.1-2.3,8.1
		C116.8,22.5,114.5,23.5,111.8,23.5z"/>
	<path fill="#143A51" d="M164.2,19.7c4.1-1.2,6.9-5,6.9-9.3c0-6.4-4.3-9.7-12.9-9.7h-18l0.1,0.1c0,0,1.1,1.6,1.1,3.8v34.4
		c0,2.2-1.1,3.7-1.1,3.7l-0.1,0.1h18.9c4.8,0,8.5-1.1,11.1-3.4c2.3-2,3.5-4.9,3.5-8.3C173.6,25.7,169.6,20.8,164.2,19.7z M147.3,1.2
		h10.3c4.5,0.1,7.1,3.5,7.1,9.2c0,5.9-2.6,9.3-7.1,9.3h-10.4V1.2z M158.5,42.5h-11.1V20.1h11.3c5.2,0,8.5,4.3,8.5,11.1
		C167.2,38.3,163.9,42.5,158.5,42.5z"/>
	<path fill="#143A51" d="M221.1,5.3c-4.1-3.4-9.9-5.3-16.3-5.3s-12.2,1.9-16.3,5.3c-4.7,3.9-7.2,9.6-7.2,16.6c0,7,2.5,12.8,7.2,16.7
		c4.1,3.4,9.9,5.3,16.3,5.3s12.2-1.9,16.3-5.3c4.7-3.9,7.2-9.7,7.2-16.7C228.3,14.9,225.8,9.1,221.1,5.3z M192.7,41.2
		c0.8,0.4,1.6,0.7,2.4,1C194.3,41.9,193.5,41.5,192.7,41.2z M216.6,38.3c-3,3.3-7.2,5.1-11.8,5.1c-4.7,0-8.9-1.8-11.8-5.1
		c-3.4-3.8-5.1-9.4-5.1-16.4c0-6.9,1.8-12.6,5.1-16.3c3-3.3,7.2-5.1,11.8-5.1c4.6,0,8.8,1.8,11.8,5.1c3.4,3.8,5.2,9.4,5.2,16.3
		C221.8,28.8,220,34.5,216.6,38.3z"/>
	<path fill="#143A51" d="M270.8,0.9c1.2,2.1,2.4,4.4,2.4,7v19.6c0,4.5-1.7,8.6-4.7,11.5c-3,2.9-7,4.5-11.4,4.5c-0.1,0-4.1,0-7.5-3.3
		c-3.1-3.1-4.7-8-4.7-14.5v-25h-7.1l0.1,0.1c0,0,1.1,1.5,1.1,3.6v22c0,5.1,1.5,9.4,4.4,12.4c3.2,3.4,7.9,5.1,13.8,5.1
		c4.5,0,8.6-1.6,11.7-4.6c3.1-3.1,4.8-7.3,4.8-11.9V7.9c0-2.7,1.1-5,2.4-7l0.1-0.1h-5.4L270.8,0.9z"/>
	<path fill="#143A51" d="M334.6,24.4c5,0,8.4-3.1,8.7-8.1c0-2.7-0.8-4.8-2.4-6.2c-1.4-1.3-3.5-2-5.9-2c-2.5,0-4.5,1.1-5.4,3.1
		c0.1-2.4,0.5-4.8,1.2-6.5c1-2.5,2.6-3.8,4.6-3.8c3.2,0,6,2.3,6.5,5.3l0,0.1l0.3,0V2.9l0-0.3L342,2.8c0,0-0.3,0.2-0.6,0.2
		c-0.3,0-0.6-0.2-1-0.5c-1.3-1.2-3.2-2-5-2c-3.5,0-6.2,1.4-7.9,4.2c-1.7,2.7-1.9,6-1.9,7.7C325.6,20.3,328.6,24.4,334.6,24.4z
		 M329.5,13.7c0-2.6,1.7-5.1,5.5-5.1c2.2,0,4.5,2.3,4.5,7.3c0,2.4-0.5,8-4.9,8c-2.1-0.1-3.5-1.4-4.3-3.8
		C329.6,18,329.5,15.6,329.5,13.7z"/>
	<path fill="#143A51" d="M366.6,4.7c-1.7-2.8-4.4-4.2-8.1-4.2c-8.7,0-9.9,7.4-9.9,11.9c0,1.7,0.2,5.1,1.9,7.7
		c1.7,2.8,4.4,4.2,8.1,4.2c3.6,0,6.3-1.3,8-4c1.6-2.5,2-5.7,2-7.9C368.5,10.3,368.2,7.2,366.6,4.7z M363.7,20c-1,2.7-2.7,4-5.2,4
		c-4.2,0-6.3-3.9-6.3-11.6c0-3.2,0.3-5.7,1.1-7.6c1-2.7,2.8-4,5.2-4c2.3,0,4,1.4,5,4c1,2.5,1.2,5.5,1.2,7.6
		C364.8,15.6,364.4,18.1,363.7,20z"/>
	<path fill="#143A51" d="M335.2,41.1c-4.7-0.3-10-3-15.2-7.5l0,0l-11.3-9.9c2-0.5,3.7-1.5,5.1-2.9c0.2-0.2,0.5-0.4,0.7-0.6
		c2.4-2.4,2.9-5.5,2.9-7.7h0v-0.1v-0.1h0c0-0.3,0-0.6,0-0.8c0,0,0-0.1,0-0.2c0-0.3,0-0.5-0.1-0.8c0-0.1,0-0.2,0-0.3
		c0-0.2-0.1-0.5-0.1-0.7c0-0.1-0.1-0.3-0.1-0.4c-0.1-0.2-0.1-0.4-0.2-0.6c-0.1-0.2-0.1-0.3-0.2-0.5c-0.1-0.2-0.1-0.4-0.2-0.5
		c-0.1-0.2-0.2-0.4-0.3-0.5c-0.1-0.2-0.1-0.3-0.2-0.5c-0.1-0.2-0.2-0.4-0.4-0.5c-0.1-0.2-0.2-0.3-0.3-0.5c-0.1-0.2-0.3-0.3-0.4-0.5
		c-0.1-0.2-0.3-0.3-0.4-0.5c-0.6-0.6-1.3-1.2-2.1-1.7c-2.4-1.4-5.6-2.1-9.5-2.1h0h-17.4l0.1,0.1c0,0,1.1,1.6,1.1,3.8v34.4
		c0,2.2-1.1,3.7-1.1,3.7l-0.1,0.1h8.3l-0.1-0.1c0,0-1.1-1.6-1.1-3.7V24h6.9c0.8,0,1.7,0.3,2.3,0.9l14.4,12.8
		c5.3,4.7,11,6.9,16.6,6.4c4.9-0.4,9.6-2.9,13.1-6.9l-0.2-0.1C343.1,40,339.3,41.4,335.2,41.1z M302.2,23.5h-9.7V1.2h9.7
		c5.3,0,8.6,4.3,8.6,11.1c0,0.8,0,1.5-0.1,2.2c0,0,0,0.1,0,0.2c0,0.3-0.1,0.6-0.2,0.9c0,0.1,0,0.1,0,0.2c-0.1,0.3-0.1,0.6-0.2,0.9
		c0,0,0,0.1,0,0.1c-0.1,0.3-0.2,0.6-0.3,0.9c0,0,0,0.1,0,0.1c-0.1,0.3-0.2,0.6-0.4,0.9c0,0,0,0,0,0c-0.3,0.6-0.6,1.1-1,1.6
		C307.1,22.4,304.9,23.5,302.2,23.5z"/>
</g>
</svg>
